PathFileType	4	(X/Y/Z)	Patient4_TMGait_0pt2_02_right_15.trc.trc
DataRate	CameraRate	NumFrames	NumMarkers	Units	OrigDataRate	OrigDataStartFrame	OrigNumFrames
43.343653250774	43.343653250774	5	33	mm	43.343653250774	53	       141
Frame#	Time	R.Midfoot.Superior			Sacral			L.Shoulder			Chest			R.Shoulder			Neck			R.ASIS			L.ASIS			R.Thigh.Superior			R.Thigh.Lateral			R.Thigh.Inferior			R.Patella			L.Thigh.Superior			L.Thigh.Lateral			L.Thigh.Inferior			L.Patella			L.Shank.Superior			L.Shank.Lateral			L.Shank.Inferior			R.Shank.Superior			R.Shank.Lateral			R.Shank.Inferior			R.Heel			R.Midfoot.Lateral			R.Toe			L.Heel			L.Midfoot.Lateral			L.Midfoot.Superior			L.Toe			L.Elbow			L.Wrist			R.Elbow			R.Wrist			
		X1	Y1	Z1	X2	Y2	Z2	X3	Y3	Z3	X4	Y4	Z4	X5	Y5	Z5	X6	Y6	Z6	X7	Y7	Z7	X8	Y8	Z8	X9	Y9	Z9	X10	Y10	Z10	X11	Y11	Z11	X12	Y12	Z12	X13	Y13	Z13	X14	Y14	Z14	X15	Y15	Z15	X16	Y16	Z16	X17	Y17	Z17	X18	Y18	Z18	X19	Y19	Z19	X20	Y20	Z20	X21	Y21	Z21	X22	Y22	Z22	X23	Y23	Z23	X24	Y24	Z24	X25	Y25	Z25	X26	Y26	Z26	X27	Y27	Z27	X28	Y28	Z28	X29	Y29	Z29	X30	Y30	Z30	X31	Y31	Z31	X32	Y32	Z32	X33	Y33	Z33	

53	34.419714285714	1041.766290197124	96.111869415360	607.428615713071	838.097384904292	988.142926876210	587.569610975140	1010.066709291712	1410.429840555294	377.879725155510	1122.389095010966	1345.407735982745	533.475518649220	1054.414483838214	1426.632738610490	710.297467611316	1005.987113766954	1478.367493191040	535.096385088550	1078.743037308818	927.206534632052	684.438022211839	1039.895383841073	948.716422983076	413.775478129789	1129.511577394718	731.627556061341	632.806042522855	1063.411848988004	611.219246632470	690.715345406276	1133.109732022461	569.861697575972	597.472432715881	1138.833001986598	474.031402980483	596.515577686297	1130.643156364936	769.492311808015	434.351748309476	1087.526573212784	644.998797261277	348.767568170463	1193.134902562574	581.886139263028	406.518739780873	1205.414495829852	492.640555228531	390.002625912755	1135.934922960665	428.002480404163	374.845995747823	990.776732687093	395.311561651268	326.515859376597	976.614199267330	259.107824524501	362.606551049381	1093.775421307977	385.874852286929	603.504353567777	1016.346990393202	290.979395567078	672.632424015311	1028.531839459256	195.472857889990	601.885750337510	867.264212117132	44.144640514797	590.084377510040	957.659233919800	37.320587007688	655.600482860904	1163.857995521703	42.961014776763	624.183950564055	787.872477891298	208.828586551993	402.840147181731	832.617555724913	161.059919283294	316.368213034766	938.980377604953	152.192613977308	330.340790403767	997.640973900940	34.844457992098	290.169505283834	940.384587848449	1054.794224861102	290.050795453530	963.830314285932	794.400703622468	300.787285085241	1074.688973239080	1082.448210252025	849.950044161242	1208.358451889086	857.865126160300	855.657380518663	
54	34.442785714286	1037.205195658778	96.050102040050	607.435309237057	837.606905515327	987.877084503626	591.889444592605	1005.268325560086	1410.501018870557	380.457505828025	1120.872281237745	1344.977765559000	533.475413378693	1057.078726722845	1426.075042965486	711.847908263587	1004.804113337089	1478.236496551569	537.705173647622	1079.259803133028	926.613445088520	685.147818203717	1036.849818247453	949.156101087777	415.095725491912	1128.723311933603	730.599747496325	633.142949749714	1062.707289736074	610.381617546284	691.343334498010	1131.378690671913	569.002600744288	597.348668658649	1136.679734268370	473.133250011420	596.171491296260	1130.773121166882	773.260375069377	437.004500835640	1091.116743977956	647.699037576432	351.264083319983	1197.443712958317	586.748305784301	409.923993616329	1212.248375216606	498.112212679649	393.222139561204	1145.168608557978	431.762287804412	377.556390901699	1001.895336158813	393.687034190008	329.410758809194	993.769769690028	257.324588594960	364.989015305337	1091.053889441488	385.071384128995	603.326541901173	1013.501867904403	290.481101604859	672.760968592008	1024.698293655699	195.056446606974	601.823066528239	862.665349606138	44.166351781126	590.206725135742	953.039949763776	37.281989974292	655.671833935312	1159.254391320324	42.791514499721	624.192703152843	808.776730065070	197.194052323858	405.327379134035	855.370191004369	154.339569761476	317.869251235702	961.067566392084	151.072268895397	331.950734335710	1025.303929631295	37.460380563389	289.108108029924	921.159286615274	1057.680120851226	296.394579061448	926.193792049922	796.038417002970	313.220791884173	1097.572702137681	1083.476355554118	850.602140715114	1249.764252031679	871.354113586860	851.160848995572	
55	34.465857142857	1032.607894557475	95.998872836879	607.488806732464	837.205378056779	988.370318124932	595.962953878563	1000.681751092340	1411.331574846985	382.923334637126	1119.532594337706	1345.110447044027	533.172733720444	1060.095729100864	1426.114920613706	712.998820568872	1003.817818477595	1478.669084068423	540.099345680715	1079.727043905612	926.467297430682	685.466303241816	1033.811679972509	950.138982868786	416.057750625498	1127.289412569900	729.806890195334	633.346256373502	1061.061826036069	610.014600807722	692.045099025650	1128.557995038324	568.361471257285	597.365197072494	1133.271266054677	472.627671182013	596.094756740597	1129.606738021416	776.567504368449	439.125321848477	1092.389053238054	650.284549350145	353.371192281181	1198.993261373031	590.936479983853	412.786959995325	1216.170754782100	503.409581014336	395.979607644723	1152.343025752173	435.400130767092	379.781928330191	1012.172422348084	390.040078892889	331.536879810694	1011.987126458544	253.894264495722	366.712745697714	1087.339438863600	384.674540194613	603.384578089689	1009.910592840478	290.185227995161	673.075861123467	1020.447017830940	194.879443801393	601.916760034379	858.036497302870	44.180365423079	590.344146886162	948.402599919761	37.233899043838	655.761564438019	1154.623886041080	42.662170844391	624.193723850271	832.304411476690	181.239680340933	406.838852443611	881.427059062263	144.045873162333	318.625422391062	986.039955526149	148.200618365170	332.951836010726	1057.623554944865	40.374706057517	287.995886050186	902.148215393370	1062.309222874680	302.057978808837	891.569218898722	801.104657606656	325.494817876264	1120.617885435741	1086.521825294724	850.439148048935	1290.689348824601	888.956850211875	845.041227255954	
56	34.488928571429	1027.980471645825	95.956253535504	607.590289650921	836.880099624415	989.565916052342	599.785747132899	996.377928802357	1412.865831613287	385.276186221763	1118.395913560150	1345.746495397858	532.603830417617	1063.433820581716	1426.694497865718	713.763352534421	1003.051460274511	1479.608363380886	542.284954654299	1080.143823205001	926.731928844609	685.422990166184	1030.777978161828	951.591560439796	416.683127110056	1125.255926993066	729.250553153627	633.451522352305	1058.536315789059	610.096921938263	692.841639894474	1124.737676545296	567.937696649502	597.560900369893	1128.703083969154	472.495452740714	596.319582879950	1127.246082965575	779.323818753764	440.679839880093	1091.476679605835	652.637342133750	354.999513595446	1197.980890704946	594.338312972393	415.011391773979	1217.346679561151	508.402438805581	398.176250277892	1157.549776478134	438.866024416984	381.435597541391	1021.781333486281	384.693159860500	332.719012118769	1031.088541602755	249.301055847386	367.661451179957	1082.719709155373	384.667587736946	603.702444117087	1005.630176663267	290.087653555542	673.590739431683	1015.816521726764	194.932989542789	602.170131562243	853.379741250099	44.194907184718	590.495043170272	943.752016127555	37.179339522811	655.866832366939	1149.972691887102	42.562871278904	624.189456395793	858.254508909956	162.416217365275	407.243429860804	910.366288061028	131.158782080075	318.601812334625	1013.450866141815	143.963867293893	333.287392927886	1093.499545737047	43.433689603614	287.031425695730	883.702644693895	1068.506817161823	307.149204102034	860.217104262870	808.879237616715	337.530632950273	1143.591929633243	1091.496736899756	849.458505755983	1330.470493948487	910.513457259434	837.393797700053	
57	34.512000000000	1023.331592772403	95.919542481711	607.735032171713	836.615722328415	991.348166388290	603.333514074423	992.419447480465	1414.985608038848	387.499768490799	1117.474318755296	1346.781585109465	531.807276421077	1067.029873680114	1427.712598215945	714.158735322296	1002.517831198105	1480.954128828215	544.257864272415	1080.504937252469	927.335700605643	685.061677292097	1027.762041885559	953.398370552957	417.002378468053	1122.706401647159	728.911795534411	633.488276787367	1055.246724937574	610.574004069615	693.731059839821	1120.073516323938	567.712423604096	597.949290216918	1123.144623962882	472.690173015448	596.844732929252	1123.857744433544	781.473500030036	441.645413943583	1088.618013858680	654.663914239762	356.075832010623	1194.735400713931	596.909097853616	416.514363738845	1216.066751756882	512.995340637690	399.742452001423	1160.953306618503	442.141270579354	382.473897059275	1030.877933081365	378.118952239290	332.864339777463	1050.760393737648	244.146068670771	367.802217332984	1077.343371784549	385.005806500368	604.274374780788	1000.762690015031	290.172456082849	674.296003846737	1010.871534906814	195.193415277057	602.570598633777	848.700734220968	44.220171844901	590.657062398854	939.094058682033	37.122513719182	655.981903797679	1145.308694932844	42.480410715131	624.182281723933	886.149674105596	142.401033953677	406.533676785086	941.491969168606	116.860998081439	317.865461075331	1042.631470873897	138.883597933496	332.986272431538	1131.560764832408	46.491045424004	286.444088916209	866.151527029892	1075.987590742786	311.795606660538	832.219614802523	818.610894475938	349.265063597175	1166.253141105016	1098.216658583440	847.651127036206	1368.462068546898	935.674488146529	828.347500129615	
